<?xml version="1.0" standalone="no"?>
<!DOCTYPE svg PUBLIC "-//W3C//DTD SVG 20010904//EN"
 "http://www.w3.org/TR/2001/REC-SVG-20010904/DTD/svg10.dtd">
<svg version="1.0" xmlns="http://www.w3.org/2000/svg"
 width="500.000000pt" height="500.000000pt" viewBox="0 0 500.000000 500.000000"
 preserveAspectRatio="xMidYMid meet">
<metadata>
Created by potrace 1.14, written by Peter Selinger 2001-2017
</metadata>
<g transform="translate(0.000000,500.000000) scale(0.100000,-0.100000)"
fill="#000000" stroke="none">
<path d="M54 4651 c-55 -34 -62 -92 -39 -361 2 -25 7 -97 10 -160 3 -63 8
-135 10 -160 2 -25 7 -88 10 -140 3 -52 7 -124 10 -160 2 -36 7 -108 10 -160
7 -111 13 -209 20 -300 2 -36 7 -112 11 -170 7 -111 21 -170 59 -235 55 -94
178 -188 430 -328 111 -62 159 -105 172 -157 23 -84 -28 -141 -217 -247 -78
-44 -152 -94 -176 -118 -75 -77 -97 -205 -60 -350 21 -82 400 -1194 415 -1218
42 -67 111 -82 195 -44 49 23 144 114 731 702 371 371 677 675 680 675 2 0 5
-115 7 -255 l3 -255 28 -27 c27 -27 31 -28 137 -28 106 0 110 1 137 28 l28 27
5 258 5 257 676 -677 c424 -424 692 -684 717 -697 90 -46 170 -33 212 34 11
17 102 279 204 581 101 302 186 556 189 564 39 101 51 242 27 317 -32 95 -65
127 -235 223 -193 109 -225 141 -225 224 0 46 3 53 48 95 26 25 92 70 147 100
265 145 385 247 438 373 22 52 30 121 42 338 3 58 8 125 10 150 2 25 7 97 10
160 4 63 8 138 10 165 2 28 7 93 10 145 3 52 8 120 10 150 2 30 7 105 10 165
4 61 8 128 10 150 2 22 6 94 9 160 7 145 -2 181 -55 209 -32 17 -42 18 -76 8
-22 -6 -49 -20 -60 -29 -12 -10 -38 -32 -60 -49 -75 -62 -688 -566 -708 -583
-12 -9 -43 -35 -70 -57 -28 -21 -61 -49 -75 -61 -14 -11 -70 -58 -125 -103
-55 -45 -109 -89 -120 -98 -11 -9 -45 -37 -75 -62 -30 -25 -57 -47 -60 -50 -3
-3 -39 -32 -80 -65 -41 -33 -86 -70 -100 -82 -14 -12 -95 -79 -180 -148 -85
-70 -168 -138 -185 -152 -16 -13 -68 -54 -114 -91 -46 -37 -105 -89 -132 -115
l-49 -48 0 169 0 168 -33 32 c-33 32 -34 32 -135 32 -99 0 -102 -1 -137 -31
l-35 -31 0 -171 0 -170 -43 44 c-24 24 -61 58 -82 75 -33 26 -207 168 -390
319 -22 18 -79 64 -127 103 -47 39 -97 80 -110 90 -13 11 -81 68 -153 127 -71
58 -139 114 -150 123 -11 9 -42 35 -70 57 -27 22 -52 42 -55 45 -3 3 -41 35
-85 70 -43 36 -88 73 -100 82 -11 9 -166 137 -345 284 -179 146 -347 285 -373
308 -92 78 -137 91 -193 57z"/>
</g>
</svg>
